<svg id="Layer_1" data-name="Layer 1" xmlns="http://www.w3.org/2000/svg" viewBox="0 0 128.06 128.06"><defs><style>.cls-1{fill:#c00;}.cls-2{font-size:100px;fill:#fff;font-family:Lato;font-weight:700;}</style></defs><title>p0</title><path class="cls-1" d="M0.06,41.69a11.13,11.13,0,0,1,2.83-6.83L34.72,3A11.13,11.13,0,0,1,41.54.17l45,0A11.13,11.13,0,0,1,93.41,3l31.86,31.83a11.13,11.13,0,0,1,2.83,6.83l0,45a11.13,11.13,0,0,1-2.83,6.83L93.46,125.37a11.13,11.13,0,0,1-6.83,2.83l-45,0a11.13,11.13,0,0,1-6.83-2.83L2.9,93.56A11.13,11.13,0,0,1,.07,86.73Z" transform="translate(-0.06 -0.16)"/><text class="cls-2" transform="translate(35.01 100.15)">0</text></svg>