<svg id="Layer_1" data-name="Layer 1" xmlns="http://www.w3.org/2000/svg" viewBox="0 0 128 128"><defs><style>.cls-1{fill:#e26b13;}</style></defs><title>p1</title><path class="cls-1" d="M126.88,115.38L69.57,6.09c-3.06-5.85-8.08-5.84-11.15,0L1.12,115.38C-1.95,121.23.95,126,7.55,126H120.45C127.05,126,129.95,121.23,126.88,115.38ZM83,116H47v-8H60V71c0-1.44.18-2.95,0.27-4.53l-9.08,7.66a3.1,3.1,0,0,1-1.13.66A4,4,0,0,1,48.9,75a3.43,3.43,0,0,1-1.6-.37,3,3,0,0,1-1.07-.86L42.8,69.26,62.21,53H71v55H83v8Z"/></svg>