<svg id="Layer_1" data-name="Layer 1" xmlns="http://www.w3.org/2000/svg" viewBox="0 0 128 128"><defs><style>.cls-1{fill:#e26b13;}</style></defs><title>p1</title><path class="cls-1" d="M126.42,109.53L70,11.76C66.7,6,61.3,6,58,11.74L1.58,109.54c-3.3,5.72-.6,10.46,6,10.46H120.42C127,120,129.72,115.24,126.42,109.53ZM81,105H49V98H61V63.79c0-1.31-.16-2.68-0.08-4.12l-8.42,7a3.1,3.1,0,0,1-1.11.6,3.86,3.86,0,0,1-1.08.16A3.19,3.19,0,0,1,48.84,67a2.75,2.75,0,0,1-1-.78L44.73,62,62.37,47H70V98H81v7Z"/></svg>