<svg id="Layer_1" data-name="Layer 1" xmlns="http://www.w3.org/2000/svg" viewBox="0 0 128 128"><defs><style>.cls-1{fill:#e26b13;}</style></defs><title>p1</title><path class="cls-1" d="M126.42,109.53L70,11.76C66.7,6,61.3,6,58,11.74L1.58,109.54c-3.3,5.72-.6,10.46,6,10.46H120.42C127,120,129.72,115.24,126.42,109.53ZM79,107H50v-7H60V70c0-1.18.21-2.41,0.29-3.71l-7.4,6.26A2.48,2.48,0,0,1,52,73a3.21,3.21,0,0,1-.93.14,2.78,2.78,0,0,1-1.3-.31,2.42,2.42,0,0,1-.88-0.7l-2.8-3.77L61.94,55H69v45H79v7Z"/></svg>