<svg id="Layer_1" data-name="Layer 1" xmlns="http://www.w3.org/2000/svg" viewBox="0 0 128 128"><title>1</title><path d="M128.1,41.64a11.13,11.13,0,0,0-2.83-6.83L93.41,3A11.13,11.13,0,0,0,86.58.16l-45,0A11.13,11.13,0,0,0,34.72,3L2.88,34.86A11.13,11.13,0,0,0,.06,41.69l0,45A11.13,11.13,0,0,0,2.9,93.56l31.86,31.83a11.13,11.13,0,0,0,6.83,2.83l45,0a11.13,11.13,0,0,0,6.83-2.83l31.83-31.86a11.13,11.13,0,0,0,2.83-6.83ZM86,101H43V91H59V45.21c0-1.76,0-3.62.12-5.56L47.87,49a4,4,0,0,1-1.44.81,5,5,0,0,1-1.44.22,4.25,4.25,0,0,1-2-.46,3.67,3.67,0,0,1-1.32-1.05L37.49,43,61.3,23H72V91H86v10Z"/></svg>