<svg id="Layer_1" data-name="Layer 1" xmlns="http://www.w3.org/2000/svg" viewBox="0 0 128 128"><defs><style>.cls-1{fill:#bf0000;}</style></defs><title>i</title><path class="cls-1" d="M72.42,44.69a9.88,9.88,0,0,0-3.89-3.76,10.28,10.28,0,0,0-4.58-1.08,10.06,10.06,0,0,0-4.51,1.08,9.79,9.79,0,0,0-3.85,3.76,23.06,23.06,0,0,0-2.66,7.22,54.94,54.94,0,0,0-1,11.44,54.94,54.94,0,0,0,1,11.44A23,23,0,0,0,55.59,82a9.78,9.78,0,0,0,3.85,3.76,10,10,0,0,0,4.51,1.08,10.26,10.26,0,0,0,4.58-1.08A9.86,9.86,0,0,0,72.42,82a23,23,0,0,0,2.71-7.22,53.82,53.82,0,0,0,1-11.44,53.82,53.82,0,0,0-1-11.44A23,23,0,0,0,72.42,44.69Zm55.69-3a11.13,11.13,0,0,0-2.83-6.83L93.41,3A11.13,11.13,0,0,0,86.58.16l-45,0A11.13,11.13,0,0,0,34.72,3L2.88,34.86A11.13,11.13,0,0,0,.06,41.69l0,45A11.13,11.13,0,0,0,2.9,93.56l31.86,31.83a11.13,11.13,0,0,0,6.83,2.83l45,0a11.13,11.13,0,0,0,6.83-2.83l31.83-31.86a11.13,11.13,0,0,0,2.83-6.83ZM85.57,77.8a29.61,29.61,0,0,1-4.93,10.14,19.93,19.93,0,0,1-7.44,6,22,22,0,0,1-9.26,2,21.75,21.75,0,0,1-9.22-2,19.84,19.84,0,0,1-7.37-6A29.55,29.55,0,0,1,42.47,77.8a52.75,52.75,0,0,1-1.76-14.45,52.7,52.7,0,0,1,1.76-14.48,29.57,29.57,0,0,1,4.88-10.12,19.85,19.85,0,0,1,7.37-6,21.75,21.75,0,0,1,9.22-2,22,22,0,0,1,9.26,2,19.94,19.94,0,0,1,7.44,6,29.64,29.64,0,0,1,4.93,10.12,52.08,52.08,0,0,1,1.78,14.48A52.13,52.13,0,0,1,85.57,77.8Z"/></svg>