<svg id="Layer_1" data-name="Layer 1" xmlns="http://www.w3.org/2000/svg" viewBox="0 0 128 128"><defs><style>.cls-1{fill:#493;}</style></defs><title>i</title><path class="cls-1" d="M120.42,8H7.58c-6.6,0-9.3,5-6,10.76L58,116.68c3.3,5.72,8.7,5.81,12,.09l56.42-98.06C129.72,13,127,8,120.42,8ZM84,67.59a16.9,16.9,0,0,1-4.92,5.59,21.68,21.68,0,0,1-6.84,3.28,28.16,28.16,0,0,1-7.72,1.08A31.76,31.76,0,0,1,57,76.66,23.58,23.58,0,0,1,50.38,74a18.9,18.9,0,0,1-8.6-11.48l12.48-3.28a10,10,0,0,0,3.28,4.92,9.38,9.38,0,0,0,6.32,2.12,11.12,11.12,0,0,0,2.92-.4,8,8,0,0,0,2.64-1.24,6.72,6.72,0,0,0,1.92-2.2,6.81,6.81,0,0,0,.76-3.36,6.17,6.17,0,0,0-1-3.6,7.1,7.1,0,0,0-2.64-2.28,12.91,12.91,0,0,0-3.72-1A24.16,24.16,0,0,0,60.58,52H57V42h3.9a23.19,23.19,0,0,0,3.68-.35,9.79,9.79,0,0,0,3.16-1.08,5.7,5.7,0,0,0,3.08-5.46,5.47,5.47,0,0,0-2.16-4.67,8.09,8.09,0,0,0-5-1.61,7.69,7.69,0,0,0-5,1.72,7.94,7.94,0,0,0-2.76,4.6L43.46,32.26A18.47,18.47,0,0,1,46.58,26,19.19,19.19,0,0,1,51.5,21.5a22.71,22.71,0,0,1,6.2-2.72,26,26,0,0,1,6.88-.92,28,28,0,0,1,7.32,1,19.63,19.63,0,0,1,6.36,3,15.65,15.65,0,0,1,4.52,5,14,14,0,0,1,1.72,7.09A12.4,12.4,0,0,1,75,46.22v0.24a11.25,11.25,0,0,1,4.39,1.8,14.22,14.22,0,0,1,3.44,3,13.17,13.17,0,0,1,2.24,3.83,12.68,12.68,0,0,1,.8,4.51A16.32,16.32,0,0,1,84,67.59Z"/></svg>