<svg id="Layer_1" data-name="Layer 1" xmlns="http://www.w3.org/2000/svg" viewBox="0 0 128 128"><defs><style>.cls-1{fill:#515151;}</style></defs><title>1</title><path class="cls-1" d="M63.64,0.72A63.27,63.27,0,1,0,126.91,64,63.27,63.27,0,0,0,63.64.72Zm6,95.1a8.33,8.33,0,0,1-6.07,2.42,8.8,8.8,0,0,1-3.3-.62,8.34,8.34,0,0,1-2.73-1.76,8.85,8.85,0,0,1-1.89-2.64,7.53,7.53,0,0,1-.7-3.26,8.23,8.23,0,0,1,2.51-5.9,8.89,8.89,0,0,1,2.77-1.8,8.59,8.59,0,0,1,3.34-.66,8.28,8.28,0,0,1,3.3.66A9.51,9.51,0,0,1,69.59,84a7.69,7.69,0,0,1,1.85,2.64A8.31,8.31,0,0,1,69.64,95.82ZM84.33,56.09a15.25,15.25,0,0,1-2,4,20,20,0,0,1-3.1,3.48Q77.42,65.24,75.12,67q-1.42,1.14-2.35,2a8.07,8.07,0,0,0-1.46,1.8,7.28,7.28,0,0,0-.92,1.94A10.61,10.61,0,0,0,70,75.18V77H57V74.13A17.86,17.86,0,0,1,57.25,70a12,12,0,0,1,1.22-3.3,17.27,17.27,0,0,1,2.11-2.9,32,32,0,0,1,3-2.9l2.89-2.73A17.22,17.22,0,0,0,69,55.43a5.74,5.74,0,0,0,1.05-3.48,6,6,0,0,0-1.72-4.49,6.47,6.47,0,0,0-4.71-1.67,6.44,6.44,0,0,0-5.54,2.51,10.33,10.33,0,0,0-2,5.68l-14-1.5a23.41,23.41,0,0,1,2.42-8.36,18.48,18.48,0,0,1,4.88-6,20.78,20.78,0,0,1,6.78-3.56,26.69,26.69,0,0,1,8-1.19,29.56,29.56,0,0,1,7.72,1,19.72,19.72,0,0,1,6.66,3.17,16.08,16.08,0,0,1,4.68,5.5A16.74,16.74,0,0,1,85,51,16.69,16.69,0,0,1,84.33,56.09Z"/></svg>